<svg id="Calque_1" data-name="Calque 1" xmlns="http://www.w3.org/2000/svg" width="6.32cm" height="2.98cm" viewBox="0 0 179.06 84.46"><polygon points="18.58 42.16 42.23 18.5 65.88 42.16 42.23 65.81 18.58 42.16 18.58 42.16" style="fill:none;stroke:#008b45;stroke-miterlimit:3.8637;stroke-width:0.03718671529769922px"/><polygon points="0.03 42.23 42.23 0.03 84.43 42.23 42.23 84.43 0.03 42.23 0.03 42.23" style="fill:none;stroke:#008b45;stroke-miterlimit:3.8637;stroke-width:0.03718671529769922px"/><path d="M113.18,42.15,136.83,18.5l23.65,23.65L136.83,65.81,113.18,42.15Zm-18.56.08L136.83,0,179,42.23l-42.2,42.2L94.62,42.23Z" style="fill:#004b92;fill-rule:evenodd"/><polygon points="113.18 42.16 136.84 18.5 160.48 42.16 136.84 65.81 113.18 42.16 113.18 42.16" style="fill:none;stroke:#004b92;stroke-miterlimit:3.8637;stroke-width:0.03718671529769922px"/><path d="M18.58,42.15,42.23,18.5,65.88,42.15,42.23,65.81,18.58,42.15ZM0,42.23,42.23,0l42.2,42.2-42.2,42.2L0,42.23Z" style="fill:#008b45;fill-rule:evenodd"/><polygon points="113.18 23.67 89.53 0.03 47.32 42.23 56.58 51.47 56.58 51.47 89.53 18.5 103.96 32.93 113.18 23.67 113.18 23.67" style="fill:#a3a4a6"/><polygon points="94.62 42.23 136.84 0.03 179.03 42.23 136.84 84.43 94.62 42.23 94.62 42.23" style="fill:none;stroke:#004b92;stroke-miterlimit:3.8637;stroke-width:0.03718671529769922px"/><polygon points="65.81 60.85 89.4 84.43 131.6 42.22 122.35 32.99 122.35 32.98 89.4 65.95 75.05 51.6 65.81 60.85 65.81 60.85" style="fill:#a3a4a6"/></svg>