<?xml version="1.0" encoding="utf-8"?>
<!-- Generator: Adobe Illustrator 26.0.1, SVG Export Plug-In . SVG Version: 6.00 Build 0)  -->
<svg version="1.1" id="Layer_1" xmlns="http://www.w3.org/2000/svg" xmlns:xlink="http://www.w3.org/1999/xlink" x="0px" y="0px"
	 viewBox="0 0 31.9 32" style="enable-background:new 0 0 31.9 32;" xml:space="preserve">
<style type="text/css">
	.st0{fill:#FFFFFF;}
	.st1{fill-rule:evenodd;clip-rule:evenodd;fill:#004B92;}
	.st2{fill-rule:evenodd;clip-rule:evenodd;fill:#008B45;}
	.st3{fill:#A3A4A6;}
</style>
<g>
	<g>
		<path class="st0" d="M31.7,15.8l-7.3-7.3l-0.2-0.2l-0.2,0.2L20,12.3l-3.9-3.9L16,8.2l-0.2,0.2l-3.9,3.9L8,8.5L7.8,8.2L7.5,8.5
			l-7.3,7.3L0,16l0.2,0.2l7.3,7.3l0.2,0.2L8,23.5l3.9-3.9l3.9,3.9l0.2,0.2l0.2-0.2l3.9-3.9l3.9,3.9l0.2,0.2l0.2-0.2l7.3-7.3l0.2-0.2
			L31.7,15.8z M27.8,16l-3.6,3.6l-2.1-2l1.4-1.4l0.2-0.2l-0.2-0.2l-1.4-1.4l2.1-2.1L27.8,16z M15.3,16.2l0.2-0.2l-0.2-0.2l-1.4-1.4
			l2-2.1l2.1,2.1l-1.4,1.4L16.4,16l0.2,0.2l1.4,1.4l-2.1,2.1l-2-2L15.3,16.2z M9.8,14.4l-1.4,1.4L8.2,16l0.2,0.2l1.4,1.4l-2,2
			L4.1,16l3.6-3.6L9.8,14.4z"/>
	</g>
	<g>
		<path class="st1" d="M20,16l4.1-4.1l4.1,4.1l-4.1,4.1L20,16L20,16z M16.8,16l7.3-7.3l7.3,7.3l-7.3,7.3L16.8,16L16.8,16z"/>
		<path class="st2" d="M3.7,16l4.1-4.1l4.1,4.1l-4.1,4.1L3.7,16L3.7,16z M0.4,16l7.3-7.3l7.3,7.3l-7.3,7.3L0.4,16L0.4,16z"/>
		<polygon class="st3" points="20,12.8 16,8.7 8.7,16 10.3,17.6 10.3,17.6 16,11.9 18.5,14.4 		"/>
		<polygon class="st3" points="11.8,19.2 15.9,23.3 23.2,16 21.6,14.4 21.6,14.4 15.9,20.1 13.4,17.6 		"/>
	</g>
</g>
</svg>
